<svg version="1.2" xmlns="http://www.w3.org/2000/svg" viewBox="0 0 9958 1750" width="9958" height="1750"><defs><linearGradient id="P" gradientUnits="userSpaceOnUse"/><linearGradient id="g1" x1="-727.1" y1="855.7" x2="3090.3" y2="911" href="#P"><stop stop-color="#0069b5"/><stop offset=".3" stop-color="#046fb4"/><stop offset=".5" stop-color="#1589ad"/><stop offset=".7" stop-color="#2eb0a2"/><stop offset="1" stop-color="#33b6a0"/></linearGradient><linearGradient id="g2" x1="-555.8" y1="822.6" x2="3263.7" y2="877.9" href="#P"><stop stop-color="#0069b5"/><stop offset=".3" stop-color="#046fb4"/><stop offset=".5" stop-color="#1589ad"/><stop offset=".7" stop-color="#2eb0a2"/><stop offset="1" stop-color="#33b6a0"/></linearGradient><linearGradient id="g3" x1="-387.1" y1="809" x2="3412.7" y2="878.3" href="#P"><stop stop-color="#0069b5"/><stop offset=".3" stop-color="#046fb4"/><stop offset=".5" stop-color="#1589ad"/><stop offset=".7" stop-color="#2eb0a2"/><stop offset="1" stop-color="#33b6a0"/></linearGradient><linearGradient id="g4" x1="-874.2" y1="841.1" x2="2925.9" y2="910.4" href="#P"><stop stop-color="#0069b5"/><stop offset=".3" stop-color="#046fb4"/><stop offset=".5" stop-color="#1589ad"/><stop offset=".7" stop-color="#2eb0a2"/><stop offset="1" stop-color="#33b6a0"/></linearGradient></defs><style>tspan{white-space:pre}.a{fill:url(#g1)}.b{fill:url(#g2)}.c{fill:url(#g3)}.d{fill:url(#g4)}.e{font-size: 35px;fill: #ffffff;font-weight: 400;font-family: "Roboto-Regular", "Roboto"}.f{font-size: 10px;fill: #ffffff;font-weight: 400;font-family: "Roboto-Regular", "Roboto"}</style><path class="a" d="m1122.1 489.8c-15.6-11.8-31.1-24.3-47.8-35.3-26-17.5-53.5-32.8-82.1-45.7-28.6-12.9-58.2-23.2-88.6-31-30.4-7.8-61.4-13-92.6-15.5-31.3-2.5-62.7-2.3-93.9 0.5-26.2 2.2-52.1 6.4-77.6 12.4-25.5 6.1-50.5 14.1-74.8 23.9-24.3 9.9-47.9 21.5-70.4 34.9-22.6 13.3-44.1 28.4-64.4 45-25.1 19.7-48.2 41.6-69.2 65.7-20.9 24-39.6 49.9-55.6 77.4-16.1 27.6-29.5 56.6-40.1 86.6-10.6 30.1-18.4 61-23.2 92.6-6.4 37-8.7 74.7-6.7 112.3 2 37.6 8.2 74.9 18.5 111.1 10.4 36.2 24.8 71.1 42.9 104.1 18.2 32.9 40 63.7 65.1 91.8 15.7 18.4 32.6 35.6 50.8 51.4 18.2 15.9 37.5 30.4 57.8 43.4 20.3 13 41.6 24.5 63.6 34.4 22 9.8 44.7 18.1 67.9 24.6q22 6.3 44.4 10.7 22.4 4.3 45.1 6.6 22.7 2.3 45.6 2.5 22.8 0.2 45.5-1.7 24.3-1.7 48.3-5.7 24-4.1 47.4-10.5 23.5-6.4 46.2-15 22.8-8.7 44.5-19.5 18.6-9.7 36.3-20.7 17.8-11 34.7-23.3 16.9-12.3 32.8-25.8 15.9-13.6 30.8-28.2 169.7-163.6 340.2-326.2c116.4-111.1 233-221.3 349.6-332.2 13.2-13 27.2-25.1 42-36.3 14.8-11.1 30.2-21.3 46.3-30.5 16.1-9.1 32.7-17.2 49.8-24.3 17.2-7 34.7-12.9 52.6-17.6 34.2-9.8 69.5-15.2 105-16.1 35.6-0.9 71.1 2.7 105.8 10.7 34.6 8 68.1 20.4 99.6 36.8 31.6 16.4 60.9 36.7 87.3 60.5 13.7 11.6 26.5 24 38.5 37.3 12 13.2 23.1 27.3 33.3 42 10.1 14.7 19.3 30.1 27.4 46.1 8.1 15.9 15.1 32.3 21 49.2 6.2 17.5 11.2 35.3 14.9 53.4 3.8 18.2 6.3 36.5 7.7 55 1.3 18.4 1.3 37 0.2 55.4-1.2 18.5-3.6 36.9-7.2 55-7.5 40.9-21.1 80.4-40.5 117.1-19.4 36.8-44.2 70.4-73.7 99.6-29.5 29.3-63.3 53.9-100.1 72.9-36.9 19.1-76.5 32.5-117.4 39.6-28.6 5.2-57.6 7.2-86.6 6-29-1.3-57.8-5.8-85.7-13.6-28-7.7-55-18.5-80.6-32.3-25.5-13.7-49.4-30.3-71.3-49.4q-2.7-2.3-5.3-4.7-2.6-2.5-5-5-2.5-2.5-4.9-5.2-2.4-2.6-4.6-5.3c2 1.4 4.1 2.6 6 4.1 13.5 10.9 27.7 20.8 42.5 29.7 14.9 8.9 30.3 16.7 46.2 23.5 15.9 6.7 32.3 12.4 49 16.8 16.7 4.5 33.7 7.9 50.9 10 26.3 3.9 52.9 5 79.5 3.1 26.5-1.8 52.8-6.6 78.3-14.1 25.5-7.5 50.1-17.8 73.4-30.7 23.2-12.8 45-28.2 65-45.8 50-42.4 87.3-97.8 107.9-160.1 20.5-62.3 23.5-129 8.5-192.8-15-63.9-47.3-122.4-93.4-169-46-46.7-104.1-79.7-167.8-95.4-27.6-7.2-56.1-10.7-84.6-10.6-28.6 0.2-57 4-84.5 11.5-27.6 7.4-54.1 18.4-78.8 32.7-24.8 14.3-47.5 31.7-67.8 51.8-88.2 83.5-173.3 170.8-260.5 254.7q-217.4 212.5-436.6 423.7-19.5 19.1-40.6 36.5-21.2 17.4-43.7 32.9-22.6 15.4-46.4 28.8-23.8 13.5-48.7 24.8-20.4 8.9-41.3 16.3-20.9 7.5-42.4 13.3-21.4 5.9-43.3 10.1-21.8 4.2-43.8 6.8-13 1.6-26 2.7-13 1.1-26 1.6-13.1 0.6-26.1 0.6-13.1 0.1-26.1-0.4-26.7-1-53.1-4.5-26.4-3.6-52.4-9.6-26-6-51.2-14.5-25.3-8.4-49.7-19.2c-29.7-12.7-58.3-27.8-85.6-45.1-27.2-17.3-53-36.8-77.1-58.2-24.2-21.5-46.5-44.9-66.8-69.9-20.4-25.1-38.7-51.8-54.7-79.8-9.6-16.5-18.3-33.5-26.1-50.8-7.9-17.4-14.9-35.1-21-53.1-6.2-18.1-11.4-36.4-15.7-55-4.3-18.5-7.7-37.3-10.2-56.2q-2.2-15.7-3.5-31.6-1.3-15.8-1.8-31.7-0.4-15.9 0.1-31.8 0.4-15.9 1.8-31.8c2.7-34.8 8.6-69.4 17.5-103.2 9-33.8 21.1-66.8 36.1-98.4 15-31.6 32.8-61.8 53.3-90.2 20.4-28.4 43.4-54.8 68.7-79 28.6-28 60-52.9 93.8-74.3 33.8-21.4 69.8-39.2 107.3-53 37.6-13.9 76.5-23.7 116.1-29.4 39.6-5.6 79.7-7.1 119.6-4.4 26.7 1.7 53.3 5.3 79.5 10.9 26.2 5.6 51.9 13.1 77 22.5 25.1 9.4 49.5 20.6 72.9 33.6 23.5 13 45.9 27.7 67.2 43.9q7.1 5.4 14 10.9 6.9 5.6 13.6 11.4 6.7 5.9 13.2 11.9 6.5 6.1 12.8 12.4c4.1 4.2 5.4 4.4 6.1 8.2z"/><path class="b" d="m1727.4 1299.1l14.7 10.8c26.7 21.1 55.4 39.7 85.6 55.6 30.2 15.8 61.8 28.8 94.4 38.8 32.6 10 66 17 99.9 20.8 33.9 3.8 68.1 4.4 102.1 1.9 18.5-1.5 36.9-3.8 55.1-7.2 18.2-3.3 36.3-7.6 54.1-12.8 17.8-5.2 35.3-11.4 52.4-18.4 17.1-7 33.9-15 50.2-23.8q18.8-9.7 36.7-20.9 17.9-11.3 34.8-24 17-12.6 32.8-26.7 15.8-14 30.4-29.3c45.2-47 81.1-102.2 105.7-162.5 24.7-60.4 37.6-124.9 38.2-190.1 0.6-65.2-11.2-130-34.7-190.8-23.6-60.8-58.5-116.6-102.8-164.4-17.8-19.6-37.1-37.7-57.8-54.2-20.6-16.5-42.6-31.3-65.7-44.2-23.1-12.9-47.2-23.9-72.1-32.9-24.9-9-50.4-16-76.4-20.8q-19.7-3.9-39.7-6.3-20-2.3-40.1-3-20.1-0.8-40.2 0.1-20 0.9-40 3.5-23.7 2.6-47 7.5-23.2 5-46 12.2-22.7 7.2-44.5 16.6-21.9 9.3-42.8 20.8-15.8 9.1-31.1 19.3-15.2 10.1-29.7 21.2-14.5 11-28.3 23-13.8 12-26.8 24.9l-607.6 581c-34.2 32.6-68.5 65.2-103.9 96.6-35 30.6-74.7 55.4-117.5 73.4-42.9 18-88.4 28.9-134.8 32.4-46.3 3.5-93-0.6-138-12-45.1-11.4-88.1-30-127.2-55.2-19.8-12.1-38.5-26-56-41.4-17.4-15.4-33.5-32.3-48-50.4-14.6-18.2-27.5-37.6-38.7-58-11.2-20.4-20.6-41.7-28.1-63.7-12.5-33.3-20.5-68.1-24-103.5-3.4-35.4-2.3-71.1 3.5-106.2 5.8-35.1 16.1-69.3 30.7-101.7 14.6-32.4 33.3-62.8 55.8-90.4 16.1-20 34-38.4 53.5-55.1 19.5-16.7 40.5-31.5 62.8-44.2 22.3-12.8 45.7-23.4 69.9-31.8 24.3-8.3 49.3-14.4 74.7-18.1q13.5-1.9 27.1-2.8 13.6-0.9 27.2-0.9 13.6 0 27.2 0.9 13.6 0.9 27.2 2.8c19.6 2.5 39 6.6 58.1 12.2 19 5.5 37.6 12.5 55.6 20.9 17.9 8.4 35.2 18.2 51.7 29.2 16.5 11 32.1 23.3 46.7 36.7q1.5 1.3 2.9 2.7 1.3 1.3 2.6 2.8 1.3 1.5 2.5 3 1.2 1.6 2.2 3.2c-11.3-7.9-22.5-15.5-34.1-23.9-35.3-23.2-74.2-40.3-115.1-50.7-40.9-10.4-83.3-13.9-125.4-10.4-42 3.5-83.2 14-121.8 31.1-38.6 17-74.1 40.4-105.1 69.1-36.1 33.7-64.8 74.5-84.5 119.9-19.6 45.3-29.6 94.2-29.4 143.6 0.2 49.4 10.5 98.2 30.5 143.4 19.9 45.2 49 85.8 85.3 119.3 12.3 11.5 25.4 22.1 39.2 31.6 13.9 9.5 28.5 17.9 43.7 25.2 15.2 7.2 30.9 13.3 47 18.1 16.1 4.8 32.6 8.4 49.3 10.7 24.4 4.1 49.3 5.6 74.1 4.3 24.8-1.3 49.3-5.3 73.2-12 23.9-6.7 47-16 68.8-27.8 21.9-11.7 42.4-25.9 61.1-42.2 17.4-15.5 33.7-31 50-46.5q302.4-295.1 604.6-590.2c29.2-28.4 58.4-56.7 89.3-83.3 19.6-17.1 40.4-32.9 62.1-47.2 21.7-14.3 44.3-27.2 67.7-38.5 23.4-11.3 47.6-21 72.3-29.2 24.7-8.1 49.9-14.5 75.4-19.3q19.7-3.8 39.5-6.4 19.9-2.6 39.8-3.9 20-1.3 40-1.4 20 0 39.9 1.2c63.5 4.6 125.9 19.3 184.7 43.7 58.9 24.3 113.5 57.8 161.7 99.4 48.2 41.5 89.5 90.5 122.3 145.1 32.8 54.6 56.7 114.1 70.7 176.2 16.3 71.3 19.1 145.1 8.1 217.5-11.1 72.4-35.6 142.1-72.5 205.3-36.8 63.3-85.3 119-142.8 164.3-57.5 45.3-123.1 79.4-193.2 100.4-42.7 12.8-86.7 20.4-131.2 22.7-44.5 2.4-89.1-0.7-132.9-9-43.7-8.3-86.4-21.8-126.9-40.3-40.5-18.4-78.7-41.7-113.7-69.3q-3.9-2.9-7.7-5.9-3.8-3-7.4-6.1-3.7-3.2-7.3-6.4-3.6-3.2-7.1-6.6c-9.5-9.3-14-14.4-20.9-21.7z"/><path class="c" d="m894.2 709.1c-8.4-5-19.2-10.9-27.8-15.5-11.7-6.3-24-11.6-36.7-15.8-12.7-4.2-25.7-7.3-38.9-9.2-13.2-1.9-26.6-2.7-39.9-2.3-13.4 0.4-26.7 1.9-39.8 4.6-22.9 4.5-45 12.6-65.5 24.1-20.4 11.4-38.9 26-54.7 43.2-15.9 17.3-28.9 36.9-38.6 58.2-9.7 21.3-15.9 44-18.5 67.3-2.9 25.4-1.2 51.1 5.1 75.9 6.3 24.7 17.1 48.2 31.8 69.1 14.7 20.9 33.1 38.9 54.3 53.2 21.2 14.4 44.8 24.7 69.7 30.5 16.1 4.1 32.6 6.1 49.2 5.9 16.5-0.2 33-2.4 49-6.8 16-4.4 31.4-10.8 45.7-19.1 14.4-8.2 27.6-18.3 39.4-30 79.2-76.1 156.5-154.4 235.1-231.4q184.1-180.5 368.7-360.5c43.5-42.4 87.3-84.7 132-125.9q12.1-10.8 24.7-21 12.6-10.2 25.7-19.7 13.1-9.5 26.7-18.3 13.6-8.8 27.6-17 24.6-14.7 50.2-27.6 25.7-12.9 52.3-23.8 26.5-10.8 53.8-19.7 27.3-8.8 55.2-15.5 27-6.7 54.5-11.3 27.5-4.5 55.2-7 27.7-2.4 55.5-2.7 27.9-0.3 55.6 1.5c22.8 1.5 45.5 4.1 68.1 7.7 22.5 3.5 44.9 8.1 67 13.7 22.2 5.6 44 12.3 65.5 19.9 21.6 7.6 42.7 16.2 63.5 25.7q21.6 9.8 42.5 21 21 11.3 41.1 23.8 20.2 12.5 39.5 26.4 19.4 13.8 37.7 28.8c29.9 23.9 57.8 50.2 83.6 78.6 25.7 28.3 49.1 58.7 70 90.7 21 32.1 39.3 65.7 54.9 100.7 15.6 34.9 28.4 71.1 38.3 108q8.2 29.2 14 58.9 5.8 29.7 9.1 59.8 3.4 30.1 4.4 60.3 0.9 30.3-0.6 60.5c-2.1 32.5-6.2 64.9-12.5 96.9-6.3 32-14.7 63.6-25.1 94.5-10.3 30.9-22.7 61.1-37 90.4-14.4 29.3-30.6 57.7-48.6 84.9q-8.2 12.2-17 24-8.7 11.9-17.8 23.4-9.2 11.6-18.8 22.8-9.5 11.2-19.5 22-20.2 21.6-42 41.5-21.9 19.9-45.3 38-23.4 18-48.2 34.1-24.9 16.1-50.9 30.1-25.3 13.9-51.6 25.6-26.3 11.7-53.6 21.2-27.2 9.5-55.1 16.7-27.9 7.2-56.4 12-22.7 3.9-45.7 6.3-23 2.5-46.1 3.5-23.1 1-46.2 0.6-23.1-0.5-46.2-2.3c-23.6-1.8-47.2-4.9-70.5-9.2-23.3-4.2-46.5-9.7-69.2-16.4-22.8-6.7-45.2-14.6-67.1-23.6-22-9-43.4-19.2-64.3-30.5q-22.9-14.3-45-29.7-22.1-15.4-43.5-31.9-21.3-16.4-41.8-33.9-20.6-17.4-40.2-35.9c2.1 1.6 4.1 3.2 6.3 4.9q15.4 12.8 31.6 24.8 16.1 11.9 32.8 23 16.8 11 34.2 21 17.4 10 35.3 19.1 25.8 13.2 52.6 24.2 26.8 11 54.4 19.7 27.7 8.7 55.9 15 28.3 6.3 57 10.2 14.5 2 29.1 3.3 14.5 1.4 29.1 2.2 14.6 0.8 29.2 1 14.7 0.1 29.3-0.3 19.8-0.6 39.5-2.3 19.8-1.8 39.4-4.7 19.6-2.9 39-6.9 19.5-4 38.6-9.2 22.3-5.9 44.1-13.4 21.9-7.4 43.2-16.4 21.2-8.9 41.8-19.3 20.6-10.4 40.4-22.2 19.8-11.9 38.6-25 18.9-13.1 36.9-27.4 17.9-14.3 34.9-29.8 17-15.5 32.8-32.1c22.1-22.9 42.4-47.3 60.9-73.1 18.5-25.8 35.1-53 49.6-81.2 14.6-28.2 27.1-57.4 37.4-87.4 10.4-30 18.5-60.7 24.4-91.9q4.4-21.8 7.3-43.7 2.8-22 4.1-44.2 1.2-22.1 0.9-44.3-0.4-22.2-2.4-44.2c-2.9-37.5-9.2-74.6-18.5-111-9.4-36.4-21.8-71.9-37.3-106.2-15.5-34.2-33.8-67.1-54.9-98.2-21.1-31.1-44.8-60.3-71-87.3q-12.8-13.6-26.4-26.3-13.7-12.7-28-24.6-14.4-11.9-29.5-22.9-15-11-30.7-21.1c-53.7-34.4-112.2-60.8-173.6-78.3-61.4-17.5-125-25.8-188.9-24.9-63.8 1-127.1 11.3-187.9 30.6-60.9 19.3-118.6 47.4-171.3 83.5q-14.4 10.5-28.4 21.5-14 11-27.6 22.5-13.6 11.5-26.8 23.5-13.1 12.1-25.9 24.5l-581.6 537.5q-55.1 51.6-111.1 101.9c-10.4 9.5-21.6 18.1-33.4 25.8-11.8 7.7-24.2 14.4-37.1 20.1-12.9 5.6-26.3 10.2-39.9 13.7-13.7 3.5-27.6 5.9-41.6 7.1-50.2 6-101-2.6-146.4-24.8-45.4-22.1-83.4-56.9-109.5-100.1-26.2-43.3-39.2-93.1-37.7-143.6 1.5-50.5 17.5-99.5 46.2-141.1 9.2-13.3 19.7-25.7 31.4-36.9 11.7-11.2 24.5-21.2 38.3-29.8 13.7-8.7 28.2-15.9 43.4-21.7 15.1-5.7 30.8-9.9 46.8-12.5 16.7-3.2 33.7-4.5 50.7-4.1 17 0.5 33.9 2.8 50.4 6.9 16.5 4.1 32.5 10 47.7 17.5 15.2 7.6 29.6 16.7 42.9 27.3 2.6 2.2 4.9 4.7 7.4 7.2z"/><path class="d" d="m1949.2 1075.5q7.5 5.2 15.3 9.9 7.8 4.6 15.9 8.8 8.1 4.2 16.4 7.8 8.3 3.7 16.8 6.9c18.7 7.1 38.3 11.6 58.1 13.5 19.9 1.9 40 1.1 59.7-2.3 19.6-3.5 38.8-9.6 56.8-18.1 18.1-8.6 34.9-19.5 50-32.6 23.5-18.9 42.7-42.5 56.4-69.4 13.7-26.8 21.5-56.3 22.9-86.4 1.5-30.1-3.5-60.2-14.6-88.2-11.1-28.1-28-53.4-49.6-74.4-13.7-14.3-29.5-26.5-46.9-36.1-17.3-9.5-36.1-16.5-55.5-20.4-19.4-4-39.3-5.1-59.1-3.1-19.7 1.9-39 6.8-57.3 14.5q-9.2 3.4-17.9 7.8-8.8 4.4-17 9.7-8.3 5.3-15.9 11.5-7.6 6.2-14.6 13.1-209.3 206.3-419.3 412.2-135.1 133.1-271.6 265.1-20.2 20-41.8 38.5-21.6 18.5-44.5 35.4-22.9 17-46.9 32.2-24.1 15.2-49.1 28.7-27.9 14.7-57 27.1-29 12.3-59 22.2-30 9.9-60.7 17.3-30.7 7.4-61.9 12.3-24.6 3.8-49.4 5.9-24.8 2.1-49.7 2.6-25 0.4-49.8-0.9-24.9-1.2-49.7-4.2c-47.9-5.9-95.2-16.4-141.1-31.3-46-14.9-90.4-34.2-132.6-57.5-42.3-23.4-82.2-50.8-119.3-81.8-37-31-71-65.4-101.5-102.9-15.8-19.5-30.5-39.8-44.2-60.8-13.7-21-26.3-42.7-37.8-65.1-11.4-22.3-21.7-45.2-30.8-68.6-9.1-23.4-16.9-47.2-23.5-71.4q-8.4-30-14.2-60.5-5.9-30.6-9.2-61.5-3.3-30.9-4.1-62-0.7-31.1 1.1-62.2c3.4-54.9 13.1-109.3 28.7-162.1 15.7-52.8 37.3-103.7 64.4-151.6 27-48 59.4-92.7 96.6-133.4 37.1-40.7 78.7-77.1 124-108.4 33-23.2 68-43.5 104.5-60.7 36.6-17.1 74.5-31.2 113.4-41.9 38.9-10.8 78.7-18.1 118.9-22.1 40.1-4 80.6-4.5 120.8-1.6 23.4 1.5 46.7 4.2 69.8 8 23.1 3.9 46 8.9 68.6 15.1 22.6 6.2 44.9 13.5 66.7 22 21.8 8.5 43.2 18.1 64.1 28.7q24.6 14.9 48.5 31.1 23.8 16.1 46.8 33.5 23 17.3 45.1 35.8 22 18.6 43.1 38.2c-2-1.4-4.1-2.6-5.9-4.2q-10.9-9.4-22.4-18.3-11.4-8.9-23.2-17.3-11.8-8.3-24-16.1-12.2-7.8-24.8-15-17.9-10.6-36.5-20.1-18.5-9.6-37.6-18-19-8.5-38.5-15.8-19.5-7.4-39.4-13.6-17.3-5.5-34.9-9.9-17.6-4.4-35.5-7.8-17.8-3.5-35.8-5.8-18-2.4-36.1-3.7c-31.1-2-63.4-3-94.9-2q-18.6 0.8-37.2 2.7-18.5 1.9-36.9 4.8-18.4 3-36.6 7-18.2 3.9-36.2 9-19.4 5.2-38.4 11.5-19.1 6.4-37.7 13.9-18.6 7.5-36.8 16.2-18.1 8.6-35.7 18.3-10.4 5.8-20.5 11.9-10.2 6.1-20.1 12.6-10 6.5-19.7 13.3-9.7 6.8-19.2 13.9-10.3 8-20.3 16.3-10.1 8.3-19.8 16.9-9.7 8.6-19.1 17.6-9.4 9-18.5 18.3-6.2 6.4-12.2 12.9-6 6.5-11.8 13.2-5.9 6.7-11.5 13.5-5.6 6.9-11.1 13.9c-16.2 20.6-31.2 42.2-44.9 64.6-13.6 22.4-26 45.6-36.9 69.5-10.9 23.8-20.3 48.3-28.3 73.4-8 25-14.5 50.4-19.4 76.2q-4.3 21.2-7 42.7-2.8 21.5-4.1 43.1-1.3 21.7-1.1 43.3 0.2 21.7 2 43.3c4.2 55.7 15.5 110.7 33.7 163.5 18.1 52.9 43 103.2 73.9 149.7 30.9 46.5 67.7 88.9 109.4 126.2 41.6 37.2 87.9 68.9 137.7 94.4q24.6 12.6 50.2 23 25.6 10.4 52 18.6 26.4 8.1 53.4 14 27 5.8 54.4 9.3 14.4 2 28.9 3.3 14.5 1.3 29 2 14.6 0.7 29.1 0.7 14.5 0 29.1-0.6 24.3-1.1 48.5-4.1 24.3-2.9 48.2-7.7 23.9-4.8 47.4-11.3 23.5-6.6 46.4-14.9c21.2-7.8 42-16.7 62.4-26.6 20.3-9.9 40.1-20.9 59.3-32.8 19.2-11.9 37.8-24.9 55.6-38.7 17.9-13.8 35.1-28.6 51.4-44.2q204.5-189.8 409-378.8 155.3-143.6 312-286.7c21.8-19.2 46.6-34.7 73.4-46 26.8-11.3 55.2-18.2 84.1-20.5 29-2.3 58.1 0.1 86.3 7.1 28.3 7 55.1 18.4 79.7 34 15 9.2 29 20 41.7 32.1 12.7 12.1 24.2 25.5 34.1 40 10 14.5 18.4 30 25.2 46.3 6.7 16.2 11.8 33.1 15 50.4 3.9 17.3 5.9 35.1 5.9 52.8 0.1 17.8-1.7 35.5-5.5 52.9-3.7 17.4-9.3 34.3-16.7 50.5-7.4 16.2-16.5 31.5-27.2 45.7-11.7 16.8-25.4 32-40.9 45.3-15.5 13.2-32.6 24.5-51 33.5-18.3 8.9-37.7 15.5-57.7 19.6-20 4-40.5 5.5-60.8 4.4-13.4-0.3-26.8-1.9-39.9-4.5-13.1-2.7-26-6.5-38.5-11.3-12.4-4.9-24.5-10.8-36-17.7-11.4-7-22.3-14.9-32.4-23.6-2.4-2.5-4.9-5-7.6-7.4z"/></svg>